<svg id="Layer_2" data-name="Layer 2" xmlns="http://www.w3.org/2000/svg" viewBox="0 0 217 42"><defs><style>.cls-1{fill:#f7f7f9;}</style></defs><title>logo</title><path class="cls-1" d="M38.051,0H9.184a0.977,0.977,0,0,0-.82.443l-8.2,12.074a0.985,0.985,0,0,0,.057,1.165L22.855,41.637a0.983,0.983,0,0,0,1.525,0L47.014,13.682a0.986,0.986,0,0,0,.057-1.165L38.879,0.443A0.991,0.991,0,0,0,38.051,0ZM36.468,3.937l5.191,7.875H36.05L31.81,3.937h4.658Zm-16.574,0h7.438l4.24,7.875H15.663Zm-9.127,0h4.658l-4.24,7.875H5.576ZM7.24,15.749h4.215l5.6,13.124Zm8.439,0H31.556L23.617,35.706,15.679,15.749h0Zm14.5,13.124,5.593-13.124h4.215Z" transform="translate(0 0)"/><path class="cls-1" d="M71.409,10.671V40.653H66.431V1.378H70.3l24.339,30.59V1.433h4.978v39.22h-4.2Z" transform="translate(0 0)"/><path class="cls-1" d="M115.386,41.206a10.41,10.41,0,0,1-3.817-.691,9.5,9.5,0,0,1-3.07-1.908,8.975,8.975,0,0,1-2.047-2.85,8.463,8.463,0,0,1-.747-3.568,7.474,7.474,0,0,1,.885-3.623,8.233,8.233,0,0,1,2.517-2.794,12.972,12.972,0,0,1,3.872-1.825,17.175,17.175,0,0,1,4.9-.663,24.178,24.178,0,0,1,4.259.387,19.7,19.7,0,0,1,3.817,1.051V22.4a7.577,7.577,0,0,0-1.991-5.56,7.57,7.57,0,0,0-5.642-2.019q-4.371,0-9.183,3.375l-1.6-3.153A19.969,19.969,0,0,1,118.76,11.28q5.7,0,8.878,3.042t3.181,8.574V34.679a1.5,1.5,0,0,0,1.548,1.769v4.2q-0.774.11-1.271,0.166a9.711,9.711,0,0,1-1.052.055,3.1,3.1,0,0,1-2.3-.857,3.527,3.527,0,0,1-1.024-2.074l-0.11-2.046a12.5,12.5,0,0,1-4.9,3.955A15.027,15.027,0,0,1,115.386,41.206Zm1.272-3.651a12.067,12.067,0,0,0,4.84-.968,7.961,7.961,0,0,0,3.4-2.573,3.071,3.071,0,0,0,1.051-2.157V27.6a20.054,20.054,0,0,0-7.357-1.383,10.441,10.441,0,0,0-5.946,1.549,4.689,4.689,0,0,0-2.3,4.039,5.487,5.487,0,0,0,.47,2.268A5.4,5.4,0,0,0,112.15,35.9a6.353,6.353,0,0,0,2.019,1.217A6.924,6.924,0,0,0,116.658,37.556Z" transform="translate(0 0)"/><path class="cls-1" d="M182.151,40.653h-4.868V24.5q0-4.536-1.466-6.694a4.91,4.91,0,0,0-4.342-2.158,7.739,7.739,0,0,0-5.338,2.13,11.717,11.717,0,0,0-3.346,5.5V40.653h-4.868V24.5q0-4.648-1.439-6.749a4.882,4.882,0,0,0-4.314-2.1,7.879,7.879,0,0,0-5.31,2.074,11.27,11.27,0,0,0-3.374,5.5V40.653h-4.868V11.777h4.425v6.2a13.11,13.11,0,0,1,4.591-4.951A11.855,11.855,0,0,1,154,11.28a8.2,8.2,0,0,1,5.78,1.964A8.491,8.491,0,0,1,162.4,18.3q3.872-7.024,11.009-7.025a8.693,8.693,0,0,1,4.176.913,6.992,6.992,0,0,1,2.683,2.544,11.77,11.77,0,0,1,1.438,3.845,24.608,24.608,0,0,1,.443,4.813V40.653Z" transform="translate(0 0)"/><path class="cls-1" d="M202.507,41.206a14.7,14.7,0,0,1-5.974-1.19,14.109,14.109,0,0,1-4.647-3.235A14.721,14.721,0,0,1,188.872,32a15.624,15.624,0,0,1-1.079-5.781,15.415,15.415,0,0,1,1.079-5.753,14.394,14.394,0,0,1,7.716-7.994,14.712,14.712,0,0,1,5.974-1.189,14.039,14.039,0,0,1,13.414,9.156A15.475,15.475,0,0,1,217,25.995c0,0.406-.009.774-0.028,1.106a5.978,5.978,0,0,1-.083.774H192.938a11.219,11.219,0,0,0,1,3.928,10.1,10.1,0,0,0,2.158,3.042,9.928,9.928,0,0,0,3.014,1.991,8.994,8.994,0,0,0,3.568.719,9.487,9.487,0,0,0,2.6-.36,11.255,11.255,0,0,0,2.379-.968,8.244,8.244,0,0,0,1.963-1.494,6.1,6.1,0,0,0,1.3-1.991l4.2,1.162a10.614,10.614,0,0,1-1.964,2.931,13,13,0,0,1-2.877,2.3,14.8,14.8,0,0,1-3.623,1.522A15.463,15.463,0,0,1,202.507,41.206Zm9.9-16.927a10.426,10.426,0,0,0-1.023-3.789,10.162,10.162,0,0,0-2.157-2.96,9.892,9.892,0,0,0-10.317-1.908,9.382,9.382,0,0,0-3.014,1.936,9.807,9.807,0,0,0-2.1,2.96,10.885,10.885,0,0,0-.968,3.761h19.582Z" transform="translate(0 0)"/></svg>